<svg xmlns="http://www.w3.org/2000/svg" xmlns:xlink="http://www.w3.org/1999/xlink" width="1080" zoomAndPan="magnify" viewBox="0 0 810 809.999993" height="1080" preserveAspectRatio="xMidYMid meet" version="1.0"><defs><g/><clipPath id="d78f685026"><path d="M 23.355469 34 L 729 34 L 729 787 L 23.355469 787 Z M 23.355469 34 " clip-rule="nonzero"/></clipPath><clipPath id="f6d21176df"><path d="M 300 19.503906 L 475 19.503906 L 475 38 L 300 38 Z M 300 19.503906 " clip-rule="nonzero"/></clipPath><clipPath id="0d1339bd00"><path d="M 347 787 L 367 787 L 367 790.503906 L 347 790.503906 Z M 347 787 " clip-rule="nonzero"/></clipPath><clipPath id="d4be3825bf"><path d="M 784 406 L 786.855469 406 L 786.855469 421 L 784 421 Z M 784 406 " clip-rule="nonzero"/></clipPath><clipPath id="f3b2f5265d"><path d="M 784 421 L 786.855469 421 L 786.855469 454 L 784 454 Z M 784 421 " clip-rule="nonzero"/></clipPath><clipPath id="199d9d7a60"><path d="M 785 420 L 786.855469 420 L 786.855469 422 L 785 422 Z M 785 420 " clip-rule="nonzero"/></clipPath></defs><g clip-path="url(#d78f685026)"><path fill="#fcfeff" d="M 336.050781 69.609375 C 333.882812 69.207031 326.203125 70.488281 317.109375 72.742188 C 306.789062 74.910156 299.339844 78.636719 294.582031 81.628906 C 291.632812 83.507812 290.53125 84.769531 295.855469 83.554688 C 302.222656 81.949219 310.550781 78.90625 319.070312 76.851562 C 321.722656 76.039062 324.285156 75.261719 326.707031 74.519531 C 334.195312 72.113281 338.1875 69.992188 336.050781 69.609375 Z M 192.523438 137.160156 C 191.71875 137.632812 190.84375 138.058594 190.109375 138.605469 C 189.296875 139.167969 188.703125 139.96875 188.054688 140.695312 C 188.796875 140.160156 189.515625 139.582031 190.355469 139.132812 Z M 146.550781 194.1875 L 145.679688 194.933594 C 145.511719 195.164062 145.289062 195.480469 145.289062 195.480469 Z M 58.339844 391.367188 C 57.582031 393.527344 55.769531 402.953125 56.4375 411.753906 C 56.695312 415.632812 57.5 419.175781 57.832031 417.894531 C 58.28125 416.175781 58.394531 411.703125 58.316406 406.757812 C 58.703125 401.816406 58.894531 396.398438 58.691406 392.777344 C 58.644531 391.875 58.460938 391.8125 58.339844 391.367188 Z M 59.96875 453.78125 C 59.386719 455.117188 59.933594 461.480469 61.578125 471.253906 C 62.730469 480.941406 66.339844 490.113281 68.59375 499.53125 C 70.828125 508.992188 74.164062 518.078125 77.847656 527.007812 C 81.753906 536.933594 85.117188 545.234375 89.136719 550.546875 C 90.113281 551.984375 90.828125 552.734375 91.496094 553.433594 C 91.800781 553.75 92.011719 553.632812 91.734375 552.878906 C 91.035156 550.980469 89.910156 547.957031 89.15625 546.554688 C 84.191406 536.484375 80.410156 525.871094 76.386719 516.320312 C 72.492188 506.707031 70.695312 497.355469 68.632812 489.96875 C 65.472656 477.910156 65.167969 474.933594 64.820312 471.960938 C 62.910156 459.1875 60.890625 451.6875 59.96875 453.78125 Z M 83.550781 484.464844 C 83.339844 484.417969 83.714844 487.390625 84.160156 489.167969 C 86.378906 496.933594 87.53125 505.121094 90.757812 512.621094 C 91.140625 513.664062 91.808594 515.125 92.085938 515.554688 C 92.839844 516.71875 92.605469 515.402344 91.550781 512.21875 C 89.691406 507.335938 88.707031 502.171875 87.894531 498.492188 C 86.765625 494.316406 85.992188 491.460938 85.375 489.1875 C 84.734375 487.132812 83.78125 484.515625 83.550781 484.464844 Z M 84.457031 520.207031 C 81.144531 512.144531 78.765625 504.929688 77.027344 501.128906 C 76.777344 500.632812 76.722656 501.136719 76.570312 501.183594 C 76.875 503.09375 77.039062 505.167969 77.523438 507.011719 C 80.195312 516.070312 83.40625 521.832031 84.925781 523.464844 C 85.257812 523.777344 84.820312 521.171875 84.457031 520.207031 Z M 46.785156 529.3125 C 48.757812 532.117188 48.484375 528.414062 46.421875 520.992188 C 45.261719 515.4375 43.066406 506.679688 40.6875 499.667969 C 38.609375 493.484375 36.699219 488.15625 35.769531 488.039062 C 35.148438 487.953125 36.394531 494.832031 39.046875 505.742188 L 41.347656 514.96875 C 42.199219 517.949219 42.914062 521.363281 44.0625 523.742188 C 45.066406 526.109375 46.210938 528.488281 46.785156 529.3125 Z M 117.414062 602.996094 C 117.355469 603.140625 117.527344 603.898438 118.113281 604.726562 C 125.398438 614.929688 132.835938 626.617188 144.503906 639.09375 C 152.003906 647.363281 161.953125 658.636719 173.488281 668.097656 C 179.039062 672.742188 184.035156 677.773438 189.957031 681.484375 C 194.679688 684.730469 198.578125 686.523438 197.125 684.890625 C 195.128906 682.53125 190.964844 679.277344 186.335938 675.414062 C 182.097656 671.554688 177.417969 667.476562 173.425781 664.210938 C 161.246094 655.140625 151 642.960938 139.617188 630.835938 C 134.191406 623.765625 128.75 616.679688 123.371094 609.667969 C 121.730469 607.546875 119.992188 605.589844 118.453125 603.839844 C 117.855469 603.140625 117.492188 602.828125 117.414062 602.996094 Z M 238.714844 726.289062 C 239.414062 726.738281 240.035156 727.242188 240.835938 727.632812 C 244.179688 729.269531 245.375 729.613281 243.804688 728.488281 C 243.425781 728.21875 241.5625 727.261719 240.683594 726.882812 C 239.824219 726.515625 239.347656 726.472656 238.714844 726.289062 Z M 308.03125 747.046875 L 310.214844 747.824219 L 310.730469 747.628906 Z M 321.082031 769.660156 C 320.632812 769.683594 321.257812 770.023438 321.386719 770.214844 C 321.214844 770.523438 328.816406 772.8125 332.765625 773.628906 C 350.851562 775.921875 359.148438 775.164062 354.519531 772.382812 C 354.050781 772.089844 350.308594 771.351562 347.785156 770.835938 C 346.828125 770.644531 344.433594 770.359375 343.652344 770.339844 C 333.929688 770.484375 326.136719 769.222656 321.082031 769.660156 Z M 433.226562 767.789062 L 433.839844 768.152344 L 436.703125 767.753906 Z M 78.6875 236.050781 C 78.757812 236.785156 79.757812 235.066406 81.144531 231.820312 C 81.488281 231.027344 81.363281 230.824219 81.449219 230.347656 C 80.914062 231.257812 80.320312 232.144531 79.855469 233.101562 C 79.378906 234.09375 78.667969 235.871094 78.6875 236.050781 Z M 103.097656 208.765625 C 103.230469 208.890625 105.273438 205.875 106.476562 204.25 C 107.097656 202.585938 108.847656 200.179688 108.644531 199.976562 C 108.539062 199.855469 106.097656 202.644531 105 204.355469 C 104.285156 205.941406 102.925781 208.613281 103.097656 208.765625 Z M 728.222656 264.285156 C 727.476562 263.375 726.621094 262.460938 725.566406 260.554688 C 720.824219 252.609375 717.164062 244 711.464844 236.03125 C 685.429688 194.234375 650.289062 156.882812 608.429688 128.058594 C 589.289062 114.882812 569.34375 104.535156 548.675781 96.042969 C 506.199219 78.894531 461.359375 70.925781 415.089844 71.492188 C 405.035156 71.203125 395.527344 72.6875 385.460938 72.558594 C 372.640625 72.023438 360.035156 75.53125 347.316406 77.296875 C 337.566406 78.933594 328.082031 82.382812 318.609375 84.808594 C 311.019531 86.59375 303.835938 89.664062 296.5 92.402344 C 289.265625 95.402344 281.527344 97.292969 274.488281 101.046875 C 236.070312 117.664062 201.585938 142.148438 173.9375 171.546875 C 164.199219 183.429688 153.148438 194.253906 144.316406 207.398438 C 122.253906 237.140625 104.683594 270.304688 93.75 305.679688 C 89.433594 322.160156 84.324219 338.5625 82.449219 355.578125 C 74.761719 404.75 78.078125 455.832031 92.832031 503.125 C 94.34375 508.492188 96.613281 513.804688 98.425781 519.171875 C 100.976562 525.777344 102.8125 532.710938 105.90625 539.085938 C 133.21875 600.359375 176.878906 653.621094 233.089844 689.652344 C 238.484375 693.082031 243.929688 696.546875 249.183594 699.890625 C 254.636719 702.898438 259.890625 705.796875 264.703125 708.453125 C 267.320312 709.96875 268.902344 711.320312 269.402344 712.054688 C 270.097656 713.035156 264.058594 710.878906 269.113281 713.886719 C 271.835938 715.40625 276.132812 717.945312 280.027344 719.382812 C 290.464844 723.363281 300.484375 727.175781 310.140625 730.847656 C 320.070312 733.710938 329.59375 736.65625 338.808594 739.71875 C 348.394531 742.359375 359.433594 744.09375 369.585938 746.378906 C 377.363281 748.023438 378.6875 749.570312 371.304688 749.160156 C 357.46875 747.757812 344.855469 747.660156 335.1875 746.734375 C 330.785156 746.292969 323.039062 744.480469 315.679688 742.722656 C 301.726562 739.796875 297.34375 736.558594 291.765625 733.023438 C 288.308594 730.585938 284.15625 728.9375 277.753906 727.757812 C 268.371094 725.601562 255.628906 720.203125 241.265625 713.734375 C 236.167969 710.914062 233.644531 710 234.941406 711.15625 C 236.949219 712.800781 240.453125 715.484375 244.523438 717.429688 L 252.65625 721.386719 L 260.824219 725.285156 C 271.460938 731.015625 283.265625 734.773438 294.113281 739.023438 C 302.683594 742.75 311.421875 744.898438 320.121094 746.839844 C 328.839844 748.660156 337.253906 751.519531 346.265625 752.476562 L 373.015625 756.695312 L 400.050781 758.214844 C 408.980469 759.046875 417.824219 757.9375 426.773438 757.382812 C 438.125 756.851562 449.367188 756.117188 460.394531 754.078125 C 471.464844 752.496094 482.511719 751.316406 493.125 748.519531 C 496.640625 747.753906 498.632812 747.429688 497.796875 747.972656 C 497.5 748.164062 495.636719 748.75 494.335938 749.109375 C 468.535156 756.460938 441.660156 759.609375 414.851562 761.015625 C 412.753906 761.152344 411.28125 761.667969 409.503906 761.902344 C 411.953125 762.011719 414.433594 762.125 416.832031 762.011719 L 444.058594 760.40625 C 462.066406 757.710938 480.386719 755.839844 497.84375 750.695312 C 504.601562 748.910156 511.890625 747.84375 517.800781 746.351562 C 527.046875 743.722656 527.476562 745.167969 519.355469 748.894531 C 510.3125 752.609375 500.765625 755.429688 491.65625 758.730469 C 486.65625 760.585938 481.167969 762.019531 474.761719 762.667969 C 467.941406 763.585938 462.566406 764.648438 460.128906 765.726562 C 456.460938 767.179688 455.136719 769.109375 443.617188 770.65625 C 432.960938 771.695312 422.113281 771.9375 411.242188 772.355469 C 403.621094 772.003906 395.867188 771.65625 388.179688 771.304688 C 387.132812 771.25 385.753906 771.378906 385.230469 771.488281 C 384.714844 771.59375 384.457031 771.828125 385.191406 771.933594 C 389.871094 772.546875 394.816406 773.195312 399.738281 773.84375 C 411.949219 775.363281 414.480469 777.199219 404.480469 777.867188 C 400.222656 778.023438 394.492188 778.238281 389.964844 778.402344 C 379.703125 778.902344 378.097656 780.035156 382.753906 781.605469 C 384.734375 782.289062 394.175781 783.105469 398.8125 782.96875 C 405.132812 782.800781 410.816406 782.617188 417.316406 781.605469 C 422.476562 781.070312 428.378906 780.457031 434.152344 779.855469 C 440.992188 779.207031 450.628906 779.386719 451.964844 779.710938 C 455.5625 781.488281 447.941406 784.257812 429.304688 785.472656 C 412.148438 787.613281 394.609375 786.535156 376.433594 785.433594 C 361.863281 784.175781 347.238281 781.050781 333.195312 779.652344 C 318.140625 776.265625 305.289062 773.023438 292.871094 768.21875 C 282.847656 763.960938 277.199219 760.96875 275.214844 758.988281 C 273.898438 757.671875 272.1875 756.21875 270.382812 754.730469 C 270.078125 754.480469 268.027344 753.523438 267.308594 753.285156 C 264.636719 752.550781 260.773438 750.765625 260.25 750.71875 C 257.316406 750.527344 255.589844 750.945312 252.667969 750.753906 C 251.015625 750.640625 248.285156 749.992188 245.332031 749.199219 C 240.160156 747.929688 223.5625 740.0625 219.128906 735.691406 C 214.953125 732.230469 212.136719 729.46875 208.703125 726.390625 C 206.714844 724.585938 200.953125 721.003906 198.460938 719.898438 C 197.679688 719.476562 196.542969 718.847656 195.988281 718.542969 C 182.179688 711.921875 174.378906 708.835938 146.433594 681.765625 C 142.894531 678.546875 139.644531 675.082031 136.683594 671.660156 C 133.742188 668.507812 130.179688 665.003906 127.96875 663.054688 C 125.054688 660.5 122.972656 659.023438 120.605469 657.179688 C 112.445312 647.300781 105.636719 635.148438 94.597656 621.1875 C 86.914062 608.882812 78.871094 596.386719 72.207031 583.328125 C 69.300781 577.308594 66.171875 571.253906 63.984375 567.984375 C 62.597656 565.902344 61.71875 565.289062 61.40625 565.664062 C 61.234375 565.851562 62.53125 569.40625 63.601562 571.730469 C 69.875 586.660156 78.222656 600.675781 86.566406 614.53125 C 87.6875 616.441406 88.886719 619.199219 88.726562 619.414062 C 88.570312 619.621094 86.921875 617.558594 85.5625 615.640625 C 84.171875 613.519531 82.234375 610.554688 80.484375 607.882812 L 70.152344 590.988281 L 59.464844 568.578125 C 54.441406 558.886719 50.9375 548.722656 47.230469 538.953125 C 43.414062 529.226562 39.582031 519.816406 36.925781 510.460938 C 34.292969 502.074219 31.351562 492.308594 29.8125 482.679688 C 28.496094 469.964844 26.28125 457.484375 24.453125 444.148438 C 23.980469 437.960938 23.652344 430.777344 23.511719 424.652344 C 23.421875 420.53125 23.617188 415.785156 23.949219 414.464844 C 24.265625 413.15625 24.949219 414.382812 25.398438 417.007812 C 26.109375 422.054688 27.101562 429.019531 27.921875 434.816406 C 28.523438 438.847656 29.414062 436.546875 29.457031 431.40625 C 29.460938 428.605469 29.476562 425.941406 29.488281 422.914062 C 29.46875 416.632812 28.792969 410.15625 29.210938 403.757812 C 30.148438 390.992188 30.527344 377.300781 32.09375 365.703125 C 35.980469 347.09375 36.738281 332.066406 40.414062 316.167969 C 42.714844 302.46875 47.945312 287.410156 51.292969 284.214844 C 53.078125 282.175781 53.992188 282.5 53.226562 287.175781 C 52.40625 291.644531 51.25 297.367188 51.035156 302.304688 C 50.910156 303.847656 50.984375 304.972656 51.347656 304.75 C 51.691406 304.53125 52.476562 302.945312 53.164062 300.808594 C 53.734375 298.667969 55.195312 294.042969 55.71875 292.550781 C 60.316406 274.488281 64.839844 256.621094 68.421875 245.183594 C 69.921875 239.367188 76.824219 223.625 83.847656 214.679688 C 89.328125 207.191406 93.871094 200.238281 99.765625 193.183594 C 101.09375 191.644531 104.101562 187.558594 105.125 185.921875 C 108.3125 180.671875 110.921875 176.382812 114.097656 171.15625 C 115.167969 169.539062 117.691406 165.851562 119.59375 164.125 C 121.425781 162.261719 123.441406 160.480469 124.28125 159.964844 C 128.75 157.207031 123.957031 164.570312 125.960938 164.503906 C 126.304688 164.496094 128.527344 162.421875 130.136719 160.933594 C 130.804688 160.320312 132.339844 158.621094 133.199219 157.597656 C 135.054688 155.332031 137.066406 152.867188 138.519531 151.09375 C 142.703125 145.21875 147.636719 139.40625 151.652344 135.023438 C 158.660156 127.339844 166.691406 117.15625 179.871094 107.496094 C 185.941406 102.675781 191.789062 98.03125 197.910156 93.175781 C 199.167969 92.308594 203.074219 90.480469 203.105469 90.683594 C 203.199219 91.160156 202.453125 92.214844 200.582031 93.800781 C 196.191406 98.085938 191.050781 103.101562 186.414062 107.621094 C 184.207031 109.832031 185.855469 109.945312 189.667969 107.429688 C 204.792969 96.75 216.121094 93.371094 228.171875 87.519531 C 230.828125 86.34375 235.070312 83.890625 238.992188 82.257812 C 242.574219 80.574219 248.304688 77.578125 249.566406 76.632812 C 252.46875 74.46875 253.117188 73.246094 254.894531 71.53125 C 258.015625 68.574219 264.691406 63.894531 278.339844 59.058594 C 287.265625 55.929688 295.851562 51.714844 305.105469 49.496094 C 306.269531 49.175781 308.160156 48.808594 308.824219 48.753906 C 309.488281 48.695312 309.699219 48.90625 308.996094 49.15625 C 303.523438 51.035156 297.511719 53.175781 292.570312 55.824219 C 282.378906 60.789062 282.242188 62.347656 286.722656 62.269531 C 287.5625 62.253906 290.378906 61.609375 292.632812 60.835938 C 305.488281 55.949219 319.328125 53.882812 332.640625 50.242188 C 333.765625 49.964844 335.742188 49.308594 336.160156 49.078125 C 337.730469 48.371094 340.109375 47.550781 339.851562 47.136719 C 338.054688 44.519531 354.132812 39.179688 377.484375 35.160156 C 378.582031 35.035156 380.953125 34.898438 381.984375 34.910156 C 384.464844 34.949219 387.742188 34.988281 388.410156 35.203125 C 389.601562 35.597656 390.035156 36.085938 389.164062 36.589844 C 386.367188 38.015625 382.792969 39.847656 379.929688 41.3125 C 379.042969 41.816406 379.664062 42.277344 379.84375 42.746094 C 380.054688 43.269531 388.878906 43.539062 393.632812 43.117188 C 402.257812 42.382812 410.601562 41.234375 419.179688 41.65625 C 422.777344 41.691406 428.863281 42.511719 429.132812 42.964844 C 429.238281 43.125 429.808594 43.324219 429.578125 43.460938 C 426.21875 45.582031 408.648438 45.972656 387.234375 48.148438 C 378.972656 48.746094 372.75 48.246094 366.15625 49.105469 C 358.898438 49.746094 358.234375 49.910156 352.140625 51.792969 C 351.320312 52.113281 350.929688 52.261719 350.238281 52.527344 C 347.003906 53.789062 341.570312 54.535156 335.191406 55.785156 C 317.949219 59.613281 300.558594 62.910156 282.988281 70.296875 L 284.070312 69.417969 L 282.867188 70.308594 C 277.746094 72.597656 272.683594 74.445312 267.453125 77.050781 C 255.144531 83.558594 242.9375 88.800781 233.550781 95.726562 C 220.90625 104.660156 207.917969 112.4375 194.671875 121.535156 C 188.695312 125.515625 182.21875 129.910156 179.09375 134.230469 C 174.109375 140.402344 166.890625 147.421875 157.171875 156.578125 C 151.011719 163.414062 144.90625 170.171875 138.816406 176.914062 C 132.695312 183.621094 127.949219 191.410156 122.484375 198.632812 C 108.445312 218.253906 96.449219 239.804688 85.90625 261.304688 C 79.703125 272.578125 77.226562 283.417969 73.40625 294.3125 C 70.761719 301.523438 69.566406 309.308594 67.828125 316.921875 C 66.359375 324.59375 64.132812 332.097656 63.34375 339.765625 C 63.132812 341.695312 63.332031 343.457031 63.636719 343.222656 C 63.945312 342.96875 64.613281 340.710938 65.109375 338.476562 C 67.601562 329.457031 70.875 319.046875 72.988281 309.058594 C 83.980469 266.042969 105.839844 224.867188 133.496094 189.421875 C 142.472656 177.355469 153.304688 166.558594 163.605469 155.609375 C 170.910156 148.96875 178.140625 142.390625 185.296875 135.882812 C 193.007812 130.035156 200.871094 124.542969 208.660156 119.171875 C 213.953125 115.105469 221.125 111.339844 227.425781 107.390625 C 239.640625 100.101562 244.082031 97.886719 244.78125 99.425781 C 245.4375 100.917969 246.539062 102.167969 251.675781 101.421875 C 253.125 101.21875 255.90625 100.304688 258.371094 99.546875 C 259.011719 99.347656 260.835938 98.5 262.039062 97.914062 C 263.222656 97.332031 265.09375 96.347656 265.324219 96.121094 C 267.023438 94.464844 268.628906 92.851562 269.886719 91.390625 C 273.761719 86.171875 288.835938 79.679688 309.832031 72.101562 C 316.558594 70.246094 324.5 68.367188 331.0625 66.964844 C 339.058594 64.917969 346.171875 64.839844 354.269531 63.960938 C 357.535156 63.617188 363.675781 62.558594 366.242188 61.898438 C 371.480469 60.496094 375.003906 59.1875 379.726562 58.496094 C 387.195312 57.140625 398.695312 56.558594 406.957031 57.148438 C 409.800781 57.234375 412.464844 57.960938 412.945312 58.410156 C 413.402344 58.878906 412.277344 59.421875 409.554688 59.578125 C 402.640625 60.386719 394.140625 61.375 386.929688 62.214844 C 383.597656 62.636719 381.371094 63.214844 379.511719 63.730469 C 377.167969 64.371094 383.359375 65.023438 388.207031 64.71875 C 389.640625 64.648438 391.449219 64.554688 392.554688 64.496094 C 408.75 61.878906 426.40625 63.6875 444.171875 64.5 C 461.601562 67.316406 479.097656 68.976562 495.855469 73.402344 C 505.269531 75.265625 515.769531 78.101562 525.335938 81.863281 C 542.210938 86.949219 557.976562 94.660156 573.980469 102.050781 C 584.164062 107.8125 594.464844 113.699219 604.378906 119.863281 C 614.042969 127.339844 623.863281 134 632.945312 141.195312 C 641.550781 148.941406 650.59375 155.898438 658.71875 163.632812 C 664.648438 169.757812 670.601562 175.914062 676.679688 182.191406 C 682.601562 188.636719 687.542969 196.109375 693.070312 203.445312 C 701.671875 214.210938 707.554688 225.734375 715.054688 236.464844 C 719.0625 242.234375 721.804688 249.4375 725.222656 255.972656 C 727.097656 259.800781 729.046875 265.277344 728.222656 264.285156 " fill-opacity="1" fill-rule="nonzero"/></g><path fill="#fcfeff" d="M 120.757812 657.371094 L 120.605469 657.179688 L 119.875 656.59375 Z M 120.757812 657.371094 " fill-opacity="1" fill-rule="nonzero"/><path fill="#fcfeff" d="M 444.609375 46.070312 C 443.894531 46.507812 443.800781 46.992188 443.558594 47.300781 C 443.703125 47.632812 443.734375 47.789062 443.855469 47.953125 C 445.039062 49.371094 450.265625 51.304688 465.917969 52.460938 C 471.6875 52.964844 477.84375 53.320312 484.203125 54.425781 C 490.480469 55.929688 497.089844 57.511719 504.039062 59.175781 C 509.894531 60.867188 516.023438 61.707031 521.648438 63.988281 C 526.207031 65.578125 532.402344 66.992188 532.402344 66.40625 C 532.402344 63.855469 531.078125 60.820312 536.363281 60.214844 C 537.539062 60.082031 528.019531 56.003906 523.035156 54.429688 C 508.453125 50.710938 496.445312 49.132812 489.390625 48.753906 C 482.898438 48.074219 472.375 48.085938 457.828125 46.003906 C 449.445312 44.914062 445.882812 45.160156 444.609375 46.070312 " fill-opacity="1" fill-rule="nonzero"/><path fill="#fcfeff" d="M 604.171875 106.839844 C 618.363281 114.214844 628.570312 121.042969 633.679688 121.859375 C 635.207031 122.183594 633.851562 120.394531 630.964844 117.597656 C 628.886719 115.582031 626.460938 113.316406 623.527344 110.820312 C 613.558594 101.96875 610.007812 98.929688 610.386719 97.277344 C 610.453125 96.953125 609.976562 96.261719 608.660156 95.175781 C 607.472656 94.199219 604.761719 92.28125 602.765625 91.085938 C 600.582031 89.792969 597.859375 88.4375 596.417969 87.835938 C 590.53125 85.402344 589.636719 86.175781 588.039062 87.511719 C 589.742188 90.875 592.125 95.578125 594.582031 100.425781 C 594.933594 101.097656 601.667969 105.585938 604.171875 106.839844 " fill-opacity="1" fill-rule="nonzero"/><path fill="#fcfeff" d="M 642.398438 675.902344 L 641.335938 676.972656 L 641.597656 676.800781 Z M 642.398438 675.902344 " fill-opacity="1" fill-rule="nonzero"/><path fill="#fcfeff" d="M 564.296875 729.21875 C 570.296875 726.429688 576.535156 723.945312 582.398438 720.730469 C 588.144531 717.308594 593.839844 713.773438 599.347656 710.066406 C 608.914062 704.207031 617.808594 696.746094 627.25 689.4375 C 632.429688 685.390625 637.105469 681.605469 641.335938 676.972656 C 640.773438 677.324219 640.242188 677.652344 639.628906 678.042969 C 629.351562 684.488281 622.859375 687.289062 615.886719 692.335938 C 609.011719 697.570312 600.285156 703.09375 584.328125 713.441406 C 577.390625 718.480469 569.132812 721.800781 561.613281 725.953125 C 555.707031 729.023438 551.253906 732.113281 551.320312 732.949219 C 551.386719 734.066406 557.042969 732.460938 564.296875 729.21875 " fill-opacity="1" fill-rule="nonzero"/><path fill="#fcfeff" d="M 688.828125 177.078125 C 692.628906 182.238281 696.363281 186.972656 699.34375 190.167969 C 702.191406 193.214844 705.265625 196.472656 706.847656 197.636719 C 712.277344 201.183594 718.519531 208.84375 726.578125 219.378906 C 727.738281 220.902344 728.109375 220.777344 728.851562 221.417969 C 729.625 222.054688 727.179688 216.898438 725.015625 213.230469 C 720.8125 206.1875 716.59375 199.023438 712.582031 195.125 C 700.621094 182.171875 691.453125 172.890625 681.144531 165.574219 C 677.597656 162.839844 682.5625 170.074219 688.828125 177.078125 " fill-opacity="1" fill-rule="nonzero"/><g clip-path="url(#f6d21176df)"><path fill="#fcfeff" d="M 387.042969 22.511719 C 395.179688 22.078125 403.328125 21.632812 410.796875 21.230469 C 418.28125 21.546875 425.074219 21.832031 430.484375 22.058594 C 442.613281 22.917969 449.144531 22.957031 455.585938 24.285156 L 465.304688 25.785156 C 470.253906 26.550781 476.203125 26.882812 474.425781 26.242188 C 473.058594 25.75 471.246094 25.128906 468.683594 24.621094 C 462.5625 23.40625 456.164062 22.328125 449.679688 21.335938 C 443.128906 21.011719 436.496094 20.683594 429.933594 20.351562 L 408.949219 19.554688 L 387.988281 20.710938 C 373.980469 21.007812 360.152344 23.167969 346.363281 25.558594 C 331.714844 27.304688 317.710938 31.882812 303.550781 35.578125 C 302.320312 35.914062 300.78125 36.496094 300.410156 36.726562 C 299.445312 37.347656 301.132812 37.222656 304.90625 36.3125 C 318.503906 33.210938 331.828125 29.050781 345.675781 27.46875 C 359.40625 25.234375 373.113281 22.835938 387.042969 22.511719 " fill-opacity="1" fill-rule="nonzero"/></g><path fill="#fcfeff" d="M 42.019531 296.832031 C 49.703125 272.535156 57.519531 252.539062 67.296875 233.464844 C 69.980469 227.605469 72.644531 221.796875 75.964844 216.410156 C 76.636719 215.226562 77.523438 213.402344 77.382812 213.4375 C 76.980469 213.535156 76.492188 213.589844 75.34375 215.167969 C 70.484375 221.265625 66.226562 229.496094 61.921875 239.023438 L 54.277344 255.75 L 47.976562 273.128906 L 41.683594 290.613281 C 39.839844 296.527344 38.492188 302.621094 36.878906 308.632812 C 34.980469 316.597656 32.601562 324.453125 31.3125 332.515625 L 27.949219 356.769531 C 27.796875 357.871094 27.777344 359.761719 27.902344 359.46875 C 28.304688 358.566406 28.980469 357.003906 29.242188 355.355469 C 31.148438 344.878906 32.140625 334.214844 34.757812 324.386719 C 37.347656 314.5625 39.8125 305.210938 42.019531 296.832031 " fill-opacity="1" fill-rule="nonzero"/><path fill="#fcfeff" d="M 487.957031 769.660156 C 484.664062 770.5625 478.425781 771.679688 477.980469 772.269531 C 477.808594 772.453125 476.925781 772.75 477.070312 772.878906 C 479.734375 775.050781 477.738281 777.898438 473.085938 781.15625 C 470.765625 782.78125 473.386719 783.6875 478.339844 784.144531 C 479.503906 784.257812 481.675781 784.175781 483.796875 784.085938 C 484.699219 784.019531 486.667969 783.859375 488.0625 783.507812 C 489.402344 783.160156 491.703125 782.472656 491.804688 782.359375 C 492.523438 781.539062 492.796875 780.832031 492.953125 780.535156 C 489.429688 779.550781 492.503906 777.316406 494.339844 775.386719 C 496.378906 773.253906 498.015625 771.199219 498.722656 769.382812 C 499 768.6875 496.820312 768.582031 494.746094 768.503906 C 493.890625 768.46875 490.539062 769.128906 487.957031 769.660156 " fill-opacity="1" fill-rule="nonzero"/><path fill="#fcfeff" d="M 566.746094 750.476562 C 568.011719 749.855469 569.953125 748.808594 570.179688 748.585938 C 571.488281 747.277344 572.359375 746.167969 572.886719 745.558594 C 571.042969 744.839844 569.773438 744.199219 568.148438 743.734375 C 567.6875 743.609375 566.753906 743.667969 564.984375 744.265625 C 563.328125 744.8125 560.019531 746.152344 557.898438 747.210938 C 555.675781 748.433594 552.582031 750.007812 552.058594 750.390625 C 547.804688 753.945312 553.15625 755.023438 562.886719 752.171875 C 563.390625 752.042969 565.503906 751.089844 566.746094 750.476562 " fill-opacity="1" fill-rule="nonzero"/><path fill="#fcfeff" d="M 203.007812 729.863281 C 195.578125 725.820312 191.71875 723.613281 190.421875 723.632812 C 189.65625 723.738281 192.921875 727.414062 198.042969 730.480469 C 205.75 735.429688 213.5625 739.394531 216.238281 739.75 C 217.828125 739.960938 215.492188 737.707031 210.753906 734.628906 C 208.347656 733.148438 205.375 731.320312 203.007812 729.863281 " fill-opacity="1" fill-rule="nonzero"/><path fill="#fcfeff" d="M 772.523438 401.671875 C 771.980469 389.519531 771.332031 378.027344 769.746094 368.410156 C 769.371094 366.8125 768.808594 366.21875 768.726562 367.148438 C 768.734375 368.160156 768.984375 371.535156 768.800781 375.039062 C 769.429688 386.023438 770.144531 397.613281 771.65625 405.785156 C 771.808594 406.605469 772.058594 407.289062 772.132812 406.773438 C 772.316406 405.46875 772.601562 403.613281 772.523438 401.671875 " fill-opacity="1" fill-rule="nonzero"/><path fill="#fcfeff" d="M 120.746094 657.367188 L 119.875 656.59375 L 120.882812 657.816406 Z M 120.746094 657.367188 " fill-opacity="1" fill-rule="nonzero"/><path fill="#fcfeff" d="M 126.742188 669.082031 C 127.929688 670.667969 130.410156 673.5625 132.378906 675.699219 C 135.769531 679.554688 138.652344 681.785156 139.992188 682.253906 C 141.710938 682.847656 140.039062 680.726562 136.648438 676.695312 C 131.5 670.53125 126.152344 664.121094 120.882812 657.816406 C 121.269531 659.28125 121.398438 660.492188 122.363281 662.554688 C 122.972656 663.863281 124.769531 666.433594 126.742188 669.082031 " fill-opacity="1" fill-rule="nonzero"/><path fill="#fcfeff" d="M 510.675781 43.640625 C 509.933594 43.394531 508.300781 42.847656 507.085938 42.445312 C 504.304688 41.804688 500.429688 40.792969 498.921875 40.59375 C 492.378906 39.746094 491.699219 40.527344 496.34375 42.636719 C 497.296875 43.070312 502.175781 44.484375 503.847656 44.816406 C 513.628906 46.738281 516.558594 46.175781 510.675781 43.640625 " fill-opacity="1" fill-rule="nonzero"/><path fill="#fcfeff" d="M 274.0625 54.246094 C 275.703125 53.394531 275.847656 52.964844 276.648438 52.347656 C 276.464844 52.25 276.734375 51.953125 275.996094 52.085938 C 274.480469 52.363281 272.78125 52.605469 270.46875 53.367188 C 268.246094 54.101562 264.355469 55.667969 262.636719 56.5 C 258.246094 58.976562 257.28125 60.273438 260.144531 59.566406 C 261.222656 59.214844 264.550781 58.117188 266.933594 57.332031 C 269.363281 56.445312 272.492188 55.058594 274.0625 54.246094 " fill-opacity="1" fill-rule="nonzero"/><path fill="#fcfeff" d="M 626.21875 709.234375 C 621.789062 712.734375 619.050781 715.453125 620.386719 715.351562 C 621.121094 715.292969 624.007812 713.589844 626.238281 712.359375 C 626.6875 712.023438 628.492188 710.707031 629.675781 709.84375 C 634.03125 706.378906 636.160156 704.160156 635.558594 703.648438 C 635.1875 703.328125 633.515625 704.066406 629.699219 706.664062 C 628.691406 707.417969 627.289062 708.441406 626.21875 709.234375 " fill-opacity="1" fill-rule="nonzero"/><path fill="#fcfeff" d="M 530.710938 81.140625 C 536.234375 83.367188 541.921875 85.105469 543.902344 85.183594 C 545.304688 85.246094 543.433594 84.003906 539.765625 82.441406 C 534.398438 80.167969 528.429688 78.167969 525.527344 77.679688 C 522.660156 77.195312 525.316406 78.96875 530.710938 81.140625 " fill-opacity="1" fill-rule="nonzero"/><path fill="#fcfeff" d="M 674.167969 148.90625 C 673.972656 148.101562 672.769531 145.722656 668.984375 142.304688 C 668.019531 141.386719 666.558594 140.117188 665.691406 139.453125 C 660.445312 135.375 658.625 134.917969 661.773438 138.703125 C 662.683594 139.800781 665.527344 142.414062 667.488281 144.328125 C 672.003906 148.015625 674.253906 150.34375 674.167969 148.90625 " fill-opacity="1" fill-rule="nonzero"/><path fill="#fcfeff" d="M 738.644531 253.507812 C 738.429688 251.980469 736.691406 247.707031 734.5625 243.472656 C 731.488281 237.339844 729.074219 233.78125 729.3125 235.710938 C 729.484375 237.121094 731.304688 241.59375 733.378906 245.691406 C 736.53125 251.929688 738.9375 255.503906 738.644531 253.507812 " fill-opacity="1" fill-rule="nonzero"/><path fill="#fcfeff" d="M 717.648438 594.914062 C 717.964844 593.09375 716.105469 595.050781 712.933594 599.460938 C 710.765625 602.367188 707.738281 608.214844 707.339844 609.210938 C 706.992188 611.273438 710.441406 607.792969 714.769531 600.722656 C 715.78125 598.699219 717.539062 595.527344 717.648438 594.914062 " fill-opacity="1" fill-rule="nonzero"/><g clip-path="url(#0d1339bd00)"><path fill="#fcfeff" d="M 356.742188 787.363281 C 349.636719 786.765625 347.078125 787.070312 347.738281 788.003906 C 349.773438 788.519531 351.558594 789.125 353.898438 789.523438 C 356.292969 789.925781 360.726562 790.421875 361.652344 790.363281 C 364.191406 790.195312 365.898438 789.851562 366.703125 789.382812 C 366.941406 789.246094 363.3125 788.445312 361.050781 787.945312 C 360.199219 787.753906 357.898438 787.460938 356.742188 787.363281 " fill-opacity="1" fill-rule="nonzero"/></g><path fill="#fcfeff" d="M 574.949219 712.636719 C 578.0625 710.890625 579.644531 709.597656 579.21875 709.472656 C 579.070312 709.414062 578.023438 709.855469 577.070312 710.363281 C 571.296875 713.238281 564.960938 715.703125 558.742188 719.164062 C 557.726562 719.714844 557.128906 720.183594 556.335938 720.6875 C 555.648438 721.398438 556.71875 721.234375 559.726562 719.839844 C 564.730469 717.46875 569.859375 715.042969 574.949219 712.636719 " fill-opacity="1" fill-rule="nonzero"/><path fill="#fcfeff" d="M 642.417969 675.882812 L 641.597656 676.800781 L 643.078125 675.511719 C 642.941406 675.589844 642.570312 675.804688 642.417969 675.882812 " fill-opacity="1" fill-rule="nonzero"/><path fill="#fcfeff" d="M 660.855469 662.414062 C 662.546875 660.4375 661.863281 660.167969 659.886719 661.5625 C 655.078125 664.960938 649.046875 670.292969 643.078125 675.511719 C 645.195312 674.71875 646.847656 674.375 652.09375 670.445312 C 654.363281 668.753906 659.199219 664.351562 660.855469 662.414062 " fill-opacity="1" fill-rule="nonzero"/><path fill="#fcfeff" d="M 760.214844 302.191406 C 759.566406 298.953125 758.503906 296.441406 758.101562 296.582031 C 757.390625 296.820312 756.898438 297.636719 756.425781 298.515625 C 756.433594 298.621094 756.832031 301.0625 757.003906 301.582031 C 757.691406 303.785156 758.523438 306.460938 759.003906 307.472656 C 759.566406 308.648438 759.816406 308.277344 760.359375 308.699219 C 760.472656 307.808594 760.671875 306.789062 760.738281 305.34375 C 760.757812 304.933594 760.492188 303.40625 760.214844 302.191406 " fill-opacity="1" fill-rule="nonzero"/><path fill="#fcfeff" d="M 249.949219 56.484375 C 250.511719 55.945312 251.367188 55.363281 251.007812 55.394531 C 250.652344 55.429688 249.238281 55.945312 248.0625 56.472656 C 245.382812 57.707031 242.394531 59.097656 239.796875 60.292969 C 237.503906 61.582031 235.527344 62.699219 233.414062 63.878906 C 235.058594 63.324219 236.566406 63.015625 238.355469 62.183594 C 242.230469 60.277344 246.316406 58.265625 249.949219 56.484375 " fill-opacity="1" fill-rule="nonzero"/><path fill="#fcfeff" d="M 345.761719 35.375 C 350.5625 34.472656 352.886719 33.761719 353.105469 33.210938 C 351.089844 33.324219 349.128906 33.265625 346.945312 33.582031 C 341.976562 34.300781 338.730469 35.148438 337.59375 35.824219 C 336.460938 36.488281 341.195312 36.226562 345.761719 35.375 " fill-opacity="1" fill-rule="nonzero"/><path fill="#fcfeff" d="M 676.558594 175.960938 C 675.910156 175.789062 677.730469 178.203125 679.941406 180.441406 C 681.570312 181.914062 682.5 182.761719 683.75 183.890625 C 683.851562 183.308594 682.671875 181.339844 680.378906 179.140625 C 678.820312 177.5625 677.027344 176.09375 676.558594 175.960938 " fill-opacity="1" fill-rule="nonzero"/><path fill="#fcfeff" d="M 273.800781 766.277344 C 267.527344 764.101562 264.121094 763.671875 267.640625 765.570312 C 268.300781 765.925781 270.238281 766.730469 271.472656 767.160156 C 277.757812 769.375 281.148438 769.757812 277.640625 767.882812 C 276.953125 767.589844 275.109375 766.824219 273.800781 766.277344 " fill-opacity="1" fill-rule="nonzero"/><path fill="#fcfeff" d="M 541.320312 744.554688 C 543.101562 743.761719 543.691406 743.207031 544.808594 742.546875 C 542.449219 743.3125 539.988281 744.105469 537.757812 744.824219 C 535.429688 745.703125 533.386719 746.714844 531.207031 747.671875 C 531.007812 747.898438 530.332031 748.320312 530.742188 748.292969 C 531.152344 748.269531 532.699219 747.859375 533.699219 747.496094 C 536.28125 746.496094 539.308594 745.335938 541.320312 744.554688 " fill-opacity="1" fill-rule="nonzero"/><path fill="#fcfeff" d="M 578.730469 72.730469 C 578.96875 72.664062 576.285156 71.144531 574.898438 70.269531 L 570.019531 68.59375 L 574.214844 71.230469 C 575.816406 71.777344 578.40625 72.816406 578.730469 72.730469 " fill-opacity="1" fill-rule="nonzero"/><path fill="#fcfeff" d="M 731.203125 580.769531 C 732.824219 577.011719 733.933594 574.0625 733.179688 574.453125 C 733.054688 574.527344 731.804688 576.773438 731.667969 577.136719 C 730.59375 580.191406 729.261719 582.804688 727.917969 585.507812 C 728.308594 585.113281 728.578125 585 729.121094 584.226562 C 729.691406 583.386719 730.679688 581.820312 731.203125 580.769531 " fill-opacity="1" fill-rule="nonzero"/><path fill="#fcfeff" d="M 738.144531 270.789062 C 737.992188 270.703125 738.136719 271.667969 738.414062 272.574219 C 739.332031 275.535156 740.171875 277.449219 740.773438 278.050781 C 740.675781 277.429688 740.742188 277.058594 740.457031 276.136719 C 739.539062 273.175781 738.632812 271.066406 738.144531 270.789062 " fill-opacity="1" fill-rule="nonzero"/><path fill="#fcfeff" d="M 586.675781 103.933594 C 587.039062 104.257812 588.804688 105.40625 589.652344 105.875 C 590.476562 106.339844 590.972656 106.425781 591.609375 106.667969 C 590.972656 106.152344 590.449219 105.605469 589.675781 105.121094 C 586.4375 103.105469 585.230469 102.632812 586.675781 103.933594 " fill-opacity="1" fill-rule="nonzero"/><path fill="#fcfeff" d="M 753.015625 329.699219 C 751.894531 325.742188 750.808594 322.351562 750.214844 322.082031 C 750.113281 322.042969 750.464844 324.175781 750.585938 324.574219 C 751.640625 327.871094 752.644531 331.007812 753.664062 334.1875 C 753.730469 333.917969 753.933594 334.003906 753.828125 333.261719 C 753.710938 332.484375 753.320312 330.804688 753.015625 329.699219 " fill-opacity="1" fill-rule="nonzero"/><g clip-path="url(#d4be3825bf)"><path fill="#fcfeff" d="M 784.460938 408.101562 C 784.359375 408.953125 784.273438 411.589844 784.328125 411.90625 C 784.910156 415.050781 785.4375 417.878906 785.980469 420.800781 L 786.027344 420.753906 C 785.644531 416.175781 785.246094 411.515625 784.882812 407.136719 C 784.832031 406.613281 784.554688 407.273438 784.460938 408.101562 " fill-opacity="1" fill-rule="nonzero"/></g><path fill="#fcfeff" d="M 534.878906 42.046875 C 534.722656 41.84375 534.773438 41.605469 534.371094 41.453125 C 531.601562 40.421875 528.753906 39.371094 525.929688 38.328125 C 526.121094 38.53125 526.097656 38.777344 526.53125 38.941406 C 529.261719 39.960938 532.085938 41.011719 534.878906 42.046875 " fill-opacity="1" fill-rule="nonzero"/><path fill="#fcfeff" d="M 751.609375 270.855469 C 751.417969 270.035156 751.316406 269.308594 750.992188 268.375 C 750.648438 267.371094 749.855469 265.457031 749.679688 265.203125 C 748.917969 264.167969 749.296875 265.726562 750.605469 269.042969 C 750.921875 269.855469 751.273438 270.261719 751.609375 270.855469 " fill-opacity="1" fill-rule="nonzero"/><path fill="#fcfeff" d="M 410.660156 754.546875 C 408.582031 754.441406 406.652344 754.03125 404.394531 753.839844 C 403.679688 753.765625 401.53125 753.804688 401.023438 753.890625 C 399.457031 754.15625 400.75 754.53125 404.226562 754.71875 C 406.371094 754.796875 408.511719 754.746094 410.660156 754.546875 " fill-opacity="1" fill-rule="nonzero"/><path fill="#fcfeff" d="M 193.242188 156.679688 C 193.9375 156.164062 194.554688 155.699219 195.339844 155.113281 C 197.613281 153.136719 198.910156 151.734375 198.691406 151.492188 C 198.625 151.425781 197.496094 152.324219 196.867188 152.78125 C 195.605469 154.136719 194.421875 155.410156 193.242188 156.679688 " fill-opacity="1" fill-rule="nonzero"/><path fill="#fcfeff" d="M 628.65625 720.996094 L 629.054688 720.335938 L 626.753906 722.140625 Z M 628.65625 720.996094 " fill-opacity="1" fill-rule="nonzero"/><path fill="#fcfeff" d="M 696.230469 650.085938 L 694.921875 651.796875 L 696.785156 649.898438 Z M 696.230469 650.085938 " fill-opacity="1" fill-rule="nonzero"/><path fill="#fcfeff" d="M 646.199219 114.816406 L 645.035156 114.28125 L 647.335938 115.980469 Z M 646.199219 114.816406 " fill-opacity="1" fill-rule="nonzero"/><path fill="#fcfeff" d="M 698.625 166.863281 L 696.667969 164.773438 L 697.71875 166.253906 Z M 698.625 166.863281 " fill-opacity="1" fill-rule="nonzero"/><path fill="#fcfeff" d="M 460.378906 40.402344 C 459.738281 40.429688 458.429688 40.367188 458.648438 40.5 C 458.859375 40.625 460.691406 40.957031 461.8125 41.195312 L 463.757812 41.128906 L 460.378906 40.402344 " fill-opacity="1" fill-rule="nonzero"/><path fill="#fcfeff" d="M 621.980469 682.550781 C 621.902344 682.464844 620.625 683.277344 619.863281 683.695312 C 619.171875 684.347656 617.910156 685.417969 617.933594 685.53125 C 617.976562 685.636719 619.277344 684.808594 620.101562 684.347656 C 620.777344 683.707031 622.046875 682.628906 621.980469 682.550781 " fill-opacity="1" fill-rule="nonzero"/><path fill="#fcfeff" d="M 758.574219 529.789062 L 757.378906 533.074219 L 758.199219 531.699219 Z M 758.574219 529.789062 " fill-opacity="1" fill-rule="nonzero"/><path fill="#fcfeff" d="M 784.347656 454.363281 L 784.253906 455.851562 C 784.296875 455.386719 784.382812 454.496094 784.425781 454 C 784.394531 454.144531 784.382812 454.199219 784.347656 454.363281 " fill-opacity="1" fill-rule="nonzero"/><g clip-path="url(#f3b2f5265d)"><path fill="#fcfeff" d="M 786.5625 433.335938 C 786.371094 429.199219 786.191406 425.289062 786.007812 421.269531 L 785.199219 439.8125 C 785.148438 445.753906 784.519531 450.160156 784.425781 454 C 786.914062 444.914062 786.820312 441.167969 786.5625 433.335938 " fill-opacity="1" fill-rule="nonzero"/></g><g clip-path="url(#199d9d7a60)"><path fill="#fcfeff" d="M 785.988281 420.800781 L 786.007812 421.269531 L 786.027344 420.753906 Z M 785.988281 420.800781 " fill-opacity="1" fill-rule="nonzero"/></g><path fill="#fcfeff" d="M 784.039062 455.488281 L 784.253906 455.851562 L 784.335938 454.355469 C 783.886719 457.679688 783.785156 458.058594 784.039062 455.488281 " fill-opacity="1" fill-rule="nonzero"/><g fill="#ffffff" fill-opacity="1"><g transform="translate(151.21251, 494.624995)"><g><path d="M 119.078125 -36.90625 C 119.078125 -33.757812 118.945312 -29.65625 118.6875 -24.59375 C 118.425781 -19.539062 117.6875 -14.613281 116.46875 -9.8125 C 115.25 -5.019531 113.328125 -0.878906 110.703125 2.609375 C 108.085938 6.109375 104.425781 7.859375 99.71875 7.859375 C 93.257812 7.859375 88.285156 5.757812 84.796875 1.5625 C 81.304688 -2.625 79.648438 -7.859375 79.828125 -14.140625 C 74.242188 -9.253906 67.914062 -5.410156 60.84375 -2.609375 C 53.78125 0.179688 46.585938 1.578125 39.265625 1.578125 C 34.203125 1.578125 29.398438 0.351562 24.859375 -2.09375 C 20.328125 -4.539062 16.316406 -7.679688 12.828125 -11.515625 C 9.335938 -15.359375 6.546875 -19.675781 4.453125 -24.46875 C 2.359375 -29.269531 1.3125 -34.023438 1.3125 -38.734375 C 1.3125 -47.109375 3.882812 -54.4375 9.03125 -60.71875 C 14.175781 -67 20.5 -72.363281 28 -76.8125 C 35.507812 -81.257812 43.492188 -84.789062 51.953125 -87.40625 C 60.410156 -90.03125 67.957031 -91.78125 74.59375 -92.65625 C 74.59375 -93.519531 74.632812 -94.300781 74.71875 -95 C 74.8125 -95.695312 74.859375 -96.484375 74.859375 -97.359375 C 74.859375 -102.765625 73.375 -107.125 70.40625 -110.4375 C 67.4375 -113.757812 63.25 -115.421875 57.84375 -115.421875 C 53.476562 -115.421875 49.722656 -114.675781 46.578125 -113.1875 C 43.441406 -111.707031 40.476562 -110.050781 37.6875 -108.21875 C 34.894531 -106.382812 32.101562 -104.726562 29.3125 -103.25 C 26.519531 -101.769531 23.378906 -101.03125 19.890625 -101.03125 C 16.054688 -101.03125 12.785156 -102.25 10.078125 -104.6875 C 7.367188 -107.132812 6.015625 -110.273438 6.015625 -114.109375 C 6.015625 -119.867188 7.71875 -125.101562 11.125 -129.8125 C 14.53125 -134.519531 18.804688 -138.488281 23.953125 -141.71875 C 29.097656 -144.945312 34.679688 -147.476562 40.703125 -149.3125 C 46.722656 -151.144531 52.257812 -152.0625 57.3125 -152.0625 C 62.03125 -152.0625 66.742188 -151.492188 71.453125 -150.359375 C 76.160156 -149.222656 80.609375 -147.476562 84.796875 -145.125 C 88.984375 -142.769531 92.773438 -139.890625 96.171875 -136.484375 C 99.578125 -133.085938 102.328125 -129.117188 104.421875 -124.578125 C 107.566406 -118.117188 110.097656 -111.269531 112.015625 -104.03125 C 113.929688 -96.789062 115.410156 -89.375 116.453125 -81.78125 C 117.503906 -74.195312 118.203125 -66.609375 118.546875 -59.015625 C 118.898438 -51.429688 119.078125 -44.0625 119.078125 -36.90625 Z M 77.203125 -45.28125 L 76.421875 -63.078125 C 76.078125 -63.078125 75.726562 -63.117188 75.375 -63.203125 C 75.03125 -63.296875 74.679688 -63.34375 74.328125 -63.34375 C 72.054688 -63.34375 69.21875 -62.773438 65.8125 -61.640625 C 62.414062 -60.503906 59.144531 -58.929688 56 -56.921875 C 52.863281 -54.921875 50.203125 -52.695312 48.015625 -50.25 C 45.835938 -47.8125 44.75 -45.28125 44.75 -42.65625 C 44.75 -40.21875 45.617188 -38.5625 47.359375 -37.6875 C 49.109375 -36.8125 51.117188 -36.375 53.390625 -36.375 C 57.234375 -36.375 61.332031 -37.378906 65.6875 -39.390625 C 70.050781 -41.398438 73.890625 -43.363281 77.203125 -45.28125 Z M 77.203125 -45.28125 "/></g></g><g transform="translate(278.144909, 494.624995)"><g><path d="M 117.515625 -46.59375 C 117.515625 -40.65625 115.640625 -34.847656 111.890625 -29.171875 C 108.140625 -23.503906 103.425781 -18.445312 97.75 -14 C 92.082031 -9.550781 86.019531 -5.972656 79.5625 -3.265625 C 73.101562 -0.566406 67.171875 0.78125 61.765625 0.78125 C 52.515625 0.78125 44.269531 -1.53125 37.03125 -6.15625 C 29.789062 -10.78125 23.726562 -16.664062 18.84375 -23.8125 C 13.957031 -30.96875 10.25 -38.863281 7.71875 -47.5 C 5.1875 -56.132812 3.921875 -64.554688 3.921875 -72.765625 C 3.921875 -81.484375 5.140625 -90.816406 7.578125 -100.765625 C 10.023438 -110.710938 13.734375 -119.875 18.703125 -128.25 C 23.679688 -136.625 29.960938 -143.601562 37.546875 -149.1875 C 45.140625 -154.769531 54.171875 -157.5625 64.640625 -157.5625 C 70.578125 -157.5625 76.25 -156.554688 81.65625 -154.546875 C 87.0625 -152.535156 91.769531 -149.695312 95.78125 -146.03125 C 99.800781 -142.375 103.03125 -138.015625 105.46875 -132.953125 C 107.914062 -127.890625 109.140625 -122.21875 109.140625 -115.9375 C 109.140625 -107.738281 107.394531 -100.0625 103.90625 -92.90625 C 100.414062 -85.757812 95.789062 -79.566406 90.03125 -74.328125 C 84.269531 -69.097656 77.640625 -64.867188 70.140625 -61.640625 C 62.640625 -58.410156 54.960938 -56.617188 47.109375 -56.265625 C 47.804688 -51.210938 49.851562 -47.550781 53.25 -45.28125 C 56.65625 -43.007812 60.71875 -41.875 65.4375 -41.875 C 68.925781 -41.875 72.328125 -42.742188 75.640625 -44.484375 C 78.953125 -46.234375 82.175781 -48.195312 85.3125 -50.375 C 88.457031 -52.5625 91.554688 -54.523438 94.609375 -56.265625 C 97.660156 -58.015625 100.757812 -58.890625 103.90625 -58.890625 C 107.394531 -58.890625 110.535156 -57.753906 113.328125 -55.484375 C 116.117188 -53.210938 117.515625 -50.25 117.515625 -46.59375 Z M 75.109375 -110.703125 C 75.109375 -112.972656 74.5 -115.328125 73.28125 -117.765625 C 72.0625 -120.210938 70.144531 -121.4375 67.53125 -121.4375 C 63.6875 -121.4375 60.457031 -120.429688 57.84375 -118.421875 C 55.226562 -116.421875 53.046875 -113.894531 51.296875 -110.84375 C 49.554688 -107.789062 48.203125 -104.519531 47.234375 -101.03125 C 46.273438 -97.539062 45.710938 -94.3125 45.546875 -91.34375 C 47.984375 -91.863281 50.898438 -92.5625 54.296875 -93.4375 C 57.703125 -94.3125 60.929688 -95.488281 63.984375 -96.96875 C 67.046875 -98.445312 69.664062 -100.320312 71.84375 -102.59375 C 74.019531 -104.863281 75.109375 -107.566406 75.109375 -110.703125 Z M 75.109375 -110.703125 "/></g></g><g transform="translate(398.272686, 494.624995)"><g><path d="M 120.65625 -172.21875 C 120.65625 -159.476562 120.175781 -146.828125 119.21875 -134.265625 C 118.257812 -121.703125 117.78125 -109.050781 117.78125 -96.3125 C 117.78125 -86.019531 118.082031 -75.8125 118.6875 -65.6875 C 119.300781 -55.570312 119.609375 -45.367188 119.609375 -35.078125 C 119.609375 -32.285156 119.519531 -28.925781 119.34375 -25 C 119.164062 -21.070312 118.597656 -17.273438 117.640625 -13.609375 C 116.679688 -9.941406 115.109375 -6.800781 112.921875 -4.1875 C 110.742188 -1.570312 107.648438 -0.265625 103.640625 -0.265625 C 98.410156 -0.265625 94.09375 -2.226562 90.6875 -6.15625 C 87.28125 -10.082031 85.144531 -14.488281 84.28125 -19.375 C 80.957031 -13.09375 76.15625 -7.769531 69.875 -3.40625 C 63.59375 0.957031 56.789062 3.140625 49.46875 3.140625 C 41.613281 3.140625 34.847656 0.4375 29.171875 -4.96875 C 23.503906 -10.382812 18.796875 -16.929688 15.046875 -24.609375 C 11.296875 -32.285156 8.503906 -40.3125 6.671875 -48.6875 C 4.835938 -57.0625 3.921875 -64.300781 3.921875 -70.40625 C 3.921875 -74.769531 4.179688 -79.742188 4.703125 -85.328125 C 5.234375 -90.910156 6.148438 -96.578125 7.453125 -102.328125 C 8.765625 -108.085938 10.46875 -113.710938 12.5625 -119.203125 C 14.65625 -124.703125 17.316406 -129.632812 20.546875 -134 C 23.773438 -138.363281 27.613281 -141.851562 32.0625 -144.46875 C 36.507812 -147.082031 41.613281 -148.390625 47.375 -148.390625 C 53.65625 -148.390625 59.671875 -146.554688 65.421875 -142.890625 C 71.179688 -139.234375 75.546875 -134.703125 78.515625 -129.296875 L 80.875 -170.90625 C 81.050781 -174.21875 81.3125 -178.097656 81.65625 -182.546875 C 82.007812 -186.992188 82.75 -191.222656 83.875 -195.234375 C 85.007812 -199.253906 86.796875 -202.660156 89.234375 -205.453125 C 91.679688 -208.242188 95.265625 -209.640625 99.984375 -209.640625 C 105.035156 -209.640625 108.957031 -208.414062 111.75 -205.96875 C 114.539062 -203.53125 116.59375 -200.4375 117.90625 -196.6875 C 119.21875 -192.9375 120.003906 -188.878906 120.265625 -184.515625 C 120.523438 -180.148438 120.65625 -176.050781 120.65625 -172.21875 Z M 78 -56.015625 C 78 -60.023438 77.910156 -63.945312 77.734375 -67.78125 C 77.554688 -71.625 77.554688 -75.550781 77.734375 -79.5625 C 76.679688 -81.832031 75.457031 -84.316406 74.0625 -87.015625 C 72.664062 -89.722656 70.960938 -92.253906 68.953125 -94.609375 C 66.953125 -96.960938 64.726562 -98.925781 62.28125 -100.5 C 59.84375 -102.070312 57.226562 -102.859375 54.4375 -102.859375 C 51.300781 -102.859375 48.769531 -101.894531 46.84375 -99.96875 C 44.925781 -98.050781 43.53125 -95.738281 42.65625 -93.03125 C 41.789062 -90.332031 41.222656 -87.410156 40.953125 -84.265625 C 40.691406 -81.128906 40.5625 -78.425781 40.5625 -76.15625 C 40.5625 -74.0625 40.734375 -70.960938 41.078125 -66.859375 C 41.429688 -62.765625 42.085938 -58.625 43.046875 -54.4375 C 44.015625 -50.25 45.367188 -46.582031 47.109375 -43.4375 C 48.859375 -40.300781 51.210938 -38.734375 54.171875 -38.734375 C 56.441406 -38.734375 58.710938 -39.210938 60.984375 -40.171875 C 63.253906 -41.128906 65.390625 -42.347656 67.390625 -43.828125 C 69.398438 -45.316406 71.320312 -46.976562 73.15625 -48.8125 C 74.988281 -50.644531 76.601562 -52.347656 78 -53.921875 Z M 78 -56.015625 "/></g></g><g transform="translate(528.345681, 494.624995)"><g><path d="M 122.484375 -74.859375 C 122.484375 -65.253906 121.523438 -55.738281 119.609375 -46.3125 C 117.691406 -36.894531 114.460938 -28.476562 109.921875 -21.0625 C 105.390625 -13.65625 99.328125 -7.679688 91.734375 -3.140625 C 84.140625 1.398438 74.675781 3.671875 63.34375 3.671875 C 52.175781 3.671875 42.835938 1.445312 35.328125 -3 C 27.828125 -7.457031 21.851562 -13.347656 17.40625 -20.671875 C 12.957031 -28.003906 9.816406 -36.289062 7.984375 -45.53125 C 6.148438 -54.78125 5.234375 -64.207031 5.234375 -73.8125 C 5.234375 -84.28125 6.457031 -94.660156 8.90625 -104.953125 C 9.425781 -107.742188 10.425781 -111.625 11.90625 -116.59375 C 13.394531 -121.570312 15.316406 -126.457031 17.671875 -131.25 C 20.023438 -136.050781 22.726562 -140.195312 25.78125 -143.6875 C 28.832031 -147.175781 32.191406 -148.921875 35.859375 -148.921875 C 39.347656 -148.921875 42.140625 -147.957031 44.234375 -146.03125 C 46.328125 -144.113281 47.984375 -141.71875 49.203125 -138.84375 C 50.421875 -135.96875 51.203125 -132.914062 51.546875 -129.6875 C 51.898438 -126.457031 52.078125 -123.535156 52.078125 -120.921875 C 52.078125 -116.898438 51.769531 -112.96875 51.15625 -109.125 C 50.550781 -105.289062 49.898438 -101.457031 49.203125 -97.625 C 48.503906 -92.382812 47.847656 -87.144531 47.234375 -81.90625 C 46.628906 -76.675781 46.328125 -71.445312 46.328125 -66.21875 C 46.328125 -63.601562 46.457031 -60.679688 46.71875 -57.453125 C 46.976562 -54.222656 47.628906 -51.125 48.671875 -48.15625 C 49.722656 -45.1875 51.207031 -42.695312 53.125 -40.6875 C 55.050781 -38.6875 57.757812 -37.6875 61.25 -37.6875 C 65.78125 -37.6875 69.394531 -38.90625 72.09375 -41.34375 C 74.800781 -43.789062 76.8125 -46.847656 78.125 -50.515625 C 79.4375 -54.179688 80.265625 -58.109375 80.609375 -62.296875 C 80.960938 -66.484375 81.140625 -70.320312 81.140625 -73.8125 C 81.140625 -81.488281 80.613281 -89.03125 79.5625 -96.4375 C 78.519531 -103.851562 77.5625 -111.398438 76.6875 -119.078125 C 76.507812 -119.953125 76.421875 -121.175781 76.421875 -122.75 C 76.421875 -125.363281 76.859375 -127.976562 77.734375 -130.59375 C 78.609375 -133.21875 79.828125 -135.578125 81.390625 -137.671875 C 82.960938 -139.765625 84.882812 -141.460938 87.15625 -142.765625 C 89.425781 -144.078125 91.957031 -144.734375 94.75 -144.734375 C 98.582031 -144.734375 101.984375 -143.378906 104.953125 -140.671875 C 107.921875 -137.972656 110.40625 -134.484375 112.40625 -130.203125 C 114.414062 -125.929688 116.070312 -121.132812 117.375 -115.8125 C 118.6875 -110.488281 119.734375 -105.253906 120.515625 -100.109375 C 121.304688 -94.960938 121.832031 -90.117188 122.09375 -85.578125 C 122.351562 -81.046875 122.484375 -77.472656 122.484375 -74.859375 Z M 122.484375 -74.859375 "/></g></g></g></svg>