<svg width="100" height="99" viewBox="0 0 100 99" fill="none" xmlns="http://www.w3.org/2000/svg">
<g clip-path="url(#clip0_1501_2065)">
<path d="M50 0C22.704 0 0.5 22.204 0.5 49.5C0.5 76.796 22.704 99 50 99C77.296 99 99.5 76.7921 99.5 49.5C99.5 22.2079 77.296 0 50 0ZM50 91.3316C26.9371 91.3316 8.16844 72.5668 8.16844 49.5C8.16844 26.4332 26.9371 7.66844 50 7.66844C73.0668 7.66844 91.8316 26.4332 91.8316 49.5C91.8316 72.5668 73.0629 91.3316 50 91.3316Z" fill="#D9EEAF"/>
<path d="M72.7103 32.2844C71.1497 30.8657 68.7227 30.9769 67.2965 32.545L43.9075 58.2997L32.608 46.8124C31.1164 45.3017 28.6932 45.2787 27.1864 46.7664C25.6757 48.2502 25.6527 50.6773 27.1404 52.188L41.2848 66.5664C42.0095 67.3025 42.991 67.7128 44.0185 67.7128C44.0415 67.7128 44.0684 67.7128 44.0914 67.7167C45.1497 67.6937 46.1466 67.2412 46.8559 66.4591L72.9708 37.7023C74.3935 36.1301 74.2785 33.7069 72.7103 32.2844Z" fill="#93AA64"/>
</g>
<defs>
<clipPath id="clip0_1501_2065">
<rect width="99" height="99" fill="white" transform="translate(0.5)"/>
</clipPath>
</defs>
</svg>
